
<svg xmlns="http://www.w3.org/2000/svg" viewBox="0 0 514.042 77.076"><g fill="#f9fafb" fill-rule="evenodd" stroke="none" stroke-linecap="round" stroke-width="0" font-size="12"><path d="m34.525 2.344.293 1.367q.195.684.635.928.439.244.732.244a23.664 23.664 0 0 1 .904.226q.714.195 1.293.409a7.611 7.611 0 0 0 1.588.392 8.782 8.782 0 0 0 .414.047 23.064 23.064 0 0 1 .733 1.172 9.094 9.094 0 0 0 .576.872 8.07 8.07 0 0 0 .156.202 45.742 45.742 0 0 1 1.981 3.124 35.863 35.863 0 0 1 1.242 2.345q1.029 2.137.39 4.595a9.36 9.36 0 0 1-.39 1.167l.098 1.074a3.35 3.35 0 0 1 .267.438q.221.438.221.831 0 .586-.196 1.661-.097.781-.146 1.708-.032.605.082 1.272a7.652 7.652 0 0 0 .162.73l.684.782a7.889 7.889 0 0 0 1.443.56 5.984 5.984 0 0 0 1.584.221 7.459 7.459 0 0 0 2.235-.326 6.643 6.643 0 0 0 1.281-.553 60.373 60.373 0 0 0 2.189-1.291 52.071 52.071 0 0 0 .74-.467 19.996 19.996 0 0 1 .975-.668q.534-.342 1.027-.601a8.074 8.074 0 0 1 1.028-.457 6.423 6.423 0 0 1 .779-.227q2.035-1.938 3.733-3.443a102.777 102.777 0 0 1 .027-.024 187.595 187.595 0 0 1 3.333-2.881 205.225 205.225 0 0 1 .231-.195 91.759 91.759 0 0 0 6.836-6.103 22.335 22.335 0 0 0 4.067-5.536 27.45 27.45 0 0 0 1.207-2.619q1.074-.683 2.441-.683a7.333 7.333 0 0 1 2.435.426 8.45 8.45 0 0 1 .299.111 33.532 33.532 0 0 1 2.735 1.221 3.871 3.871 0 0 0 .23.142q.116.067.224.115a2.06 2.06 0 0 0 .083.036q.244.097.537.292a2.549 2.549 0 0 0 .515 1.531 3.57 3.57 0 0 0 .364.423q.421.337.624.456a1.032 1.032 0 0 0 .059.032l.391.195q.598.374 1.053.691a15.574 15.574 0 0 1 .265.188 2.419 2.419 0 0 1 .691.789 3.027 3.027 0 0 1 .14.285q.878 2.637 2.929 4.102a4.753 4.753 0 0 0-.078.851 4.522 4.522 0 0 0 .176 1.248 20.694 20.694 0 0 0 .683 2.002 5.006 5.006 0 0 1 .171.377 3.673 3.673 0 0 1 .122.356 6.055 6.055 0 0 0 .086.274q.085.249.207.556l-2.148-.195.293 2.148a6.97 6.97 0 0 1 .103 1.141q.007.691-.11 1.44a11.365 11.365 0 0 1-.237 1.13 20.502 20.502 0 0 1-.35 1.196q-.201.61-.418 1.117a8.348 8.348 0 0 1-.453.91q.161 2.414.189 4a35.876 35.876 0 0 1 .006.638 26.308 26.308 0 0 1-.068 1.944 21.142 21.142 0 0 1-.127 1.23 15.216 15.216 0 0 1-.554 2.535 13.987 13.987 0 0 1-.081.248 23.915 23.915 0 0 1-.608 1.618 29.992 29.992 0 0 1-.515 1.166 43.707 43.707 0 0 1 .062 2.297q0 3.984-.758 7.582a31.577 31.577 0 0 1-1.013 3.695 131.912 131.912 0 0 1-3.268 8.615 114.043 114.043 0 0 1-1.273 2.908 25.628 25.628 0 0 1-.366.817 21.167 21.167 0 0 1-.22.453 8.998 8.998 0 0 0-.463 1.098 8.271 8.271 0 0 0-.025.074 15.047 15.047 0 0 0-1.147.36 12.074 12.074 0 0 0-.806.323q-.879.391-1.66.879a14.114 14.114 0 0 1-1.578.872 12.319 12.319 0 0 1-.571.251 5.876 5.876 0 0 1-2.246.44q-4.687-3.418-4.834-11.817a36.957 36.957 0 0 1-.005-.644q0-8.247 3.57-20.742a1.376 1.376 0 0 0 .586-1.011q.022-.192.004-.409a2.59 2.59 0 0 0-.004-.045v-1.075l-.977-.097a4.204 4.204 0 0 0-.464.024 3.142 3.142 0 0 0-.415.073.53.53 0 0 0-.268.173q-.152.171-.259.501a3.1 3.1 0 0 0-.059.205 172.448 172.448 0 0 1-4.116 2.865 208.729 208.729 0 0 1-2.671 1.774q-3.662 2.393-7.568 4.395-3.906 2.002-7.959 3.32a27.071 27.071 0 0 1-4.971 1.133 22.97 22.97 0 0 1-2.891.185 14.817 14.817 0 0 1-12.053-5.72 22.977 22.977 0 0 1-2.693-4.241l-.879-1.758-.976 1.563a11.358 11.358 0 0 0-.162.28q-.232.413-.615 1.146a118.362 118.362 0 0 0-.249.478 29.946 29.946 0 0 0-.709 1.475q-.378.84-.755 1.797-.733 1.855-1.27 3.808-.537 1.953-.342 3.418a22.609 22.609 0 0 0-1.588 1.616 26.582 26.582 0 0 0-.707.826 8.409 8.409 0 0 0-1.611 3.125 1.883 1.883 0 0 0-.102.339q-.028.148-.028.29a1.371 1.371 0 0 0 .032.298 5.489 5.489 0 0 0 .151.54 6.935 6.935 0 0 0 .142.388 3.067 3.067 0 0 1-.07.354q-.11.412-.32.623a5.721 5.721 0 0 1-.361.329 7.32 7.32 0 0 1-.323.257 29.771 29.771 0 0 0-.976 1.025 6.722 6.722 0 0 0-.729.97 7.658 7.658 0 0 0-.15.251q-.196.586-.293 1.22-.084.546-.168.983a18.333 18.333 0 0 1-.028.141q0 1.074-.293 1.464a95.945 95.945 0 0 1-.473.98q-.686 1.401-1.236 2.39a14.237 14.237 0 0 1-.453.762q-.493.769-.963 1.239-.683.684-1.416.928a4.535 4.535 0 0 1-.793.183q-.427.061-.916.061a9.564 9.564 0 0 1-.555-.018q-.635-.037-1.549-.151a50.9 50.9 0 0 1-.923-.124 11.652 11.652 0 0 1-1.291-1.669q-.55-.852-1.049-1.89a22.747 22.747 0 0 1-.443-.982 30.484 30.484 0 0 1-1.753-5.643 33.871 33.871 0 0 1-.103-.509A31.829 31.829 0 0 1 0 57.84a31.317 31.317 0 0 1 .003-.467 17.655 17.655 0 0 1 .306-3.088 13.58 13.58 0 0 1 .818-2.722.275.275 0 0 1 .014-.058q.102-.321.913-2.286a473.373 473.373 0 0 1 .498-1.2q.743-1.786 1.75-4.171a1402.518 1402.518 0 0 1 .145-.342 601.221 601.221 0 0 1 1.562-3.662 821.261 821.261 0 0 1 1.758-4.053 701.625 701.625 0 0 1 3.711-8.35 212.588 212.588 0 0 1 1.819-3.918 163.483 163.483 0 0 1 1.746-3.552q1.631-3.216 2.861-5.052a21.493 21.493 0 0 1 .117-.173 67.62 67.62 0 0 0 1.139-1.834 57.85 57.85 0 0 0 .472-.803 70.229 70.229 0 0 1 .721-1.22 56.875 56.875 0 0 1 .695-1.123 3299.086 3299.086 0 0 1 1.038-1.697 2640.092 2640.092 0 0 1 .964-1.575 17.88 17.88 0 0 1 1.739-2.385 16.262 16.262 0 0 1 .312-.349q1.123-1.221 2.49-2.149a12.103 12.103 0 0 1 1.514-.866q.778-.378 1.685-.702A19.981 19.981 0 0 1 30.912 0a17.576 17.576 0 0 1 1.094.498 12.84 12.84 0 0 1 .956.527 6.725 6.725 0 0 1 1.563 1.319Zm114.16 62.597-.195.391a14.36 14.36 0 0 1-.928 2.068 18.055 18.055 0 0 1-.781 1.301q-1.123 1.709-2.637 3.028-1.514 1.318-3.369 2.197a10.167 10.167 0 0 1-3.906.976q-.937-.216-1.421-.458a1.737 1.737 0 0 1-.288-.176q-.44-.342-.928-.635-.293-.195-.537-.342-.21-.126-.384-.216a4.649 4.649 0 0 0-.056-.028l-1.171-.488.39-1.27a2.864 2.864 0 0 0 .054-.263q.09-.595-.151-.958a2.879 2.879 0 0 0-.197-.257q-.224-.265-.594-.615a16.797 16.797 0 0 0-.381-.348l-.586-.586a4.329 4.329 0 0 1-.295-.325 3.389 3.389 0 0 1-.194-.261l-1.66-1.856 2.637-.683a12.548 12.548 0 0 0 1.183-.391q1.161-.454 1.786-1.038a2.766 2.766 0 0 0 .302-.329 2.722 2.722 0 0 0 .416-.807q.311-.927.245-2.393a13.206 13.206 0 0 0-.026-.413 12.584 12.584 0 0 0-.937-.153q-1.009-.124-1.818-.031a5.015 5.015 0 0 0-.516.086 46.492 46.492 0 0 0-2.686.684 43.58 43.58 0 0 1-3.564.83 19.38 19.38 0 0 1-2.266.285 24.516 24.516 0 0 1-1.689.056 22.19 22.19 0 0 1-.939-.019 18.215 18.215 0 0 1-.526-.029q-.684-.049-1.465-.147l-.977-.195a11.231 11.231 0 0 0-.073-.37q-.158-.732-.317-.851a3.421 3.421 0 0 1-.244-.202 4.12 4.12 0 0 1-.147-.14q-.488-.488-1.025-1.318a2.168 2.168 0 0 1-.331-.952q-.04-.357.016-.766a4.291 4.291 0 0 1 .071-.382 5.116 5.116 0 0 1-.426-.988 4.224 4.224 0 0 1-.16-.769 10.943 10.943 0 0 0-.879 2.441l-.391.977-.976.195a.427.427 0 0 0-.145.123q-.091.116-.148.316a3.832 3.832 0 0 0-.048.181q-.041.176-.048.302a.905.905 0 0 0-.002.054l-.488 1.661a3.931 3.931 0 0 1-.244.225 3.267 3.267 0 0 1-.147.116 3.421 3.421 0 0 0-.244.203 4.12 4.12 0 0 0-.147.139q-.195.879-.488 1.758a50.046 50.046 0 0 1-.403 1.162 42.728 42.728 0 0 1-.183.498 28.314 28.314 0 0 0-.731 2.146 25.495 25.495 0 0 0-.099.344q-.342 1.221-.244 2.393l-.391 1.074a4.384 4.384 0 0 1-.631.624 3.693 3.693 0 0 1-.443.304 20.689 20.689 0 0 1-1.172.635q-.164.164-.432.294a2.504 2.504 0 0 1-.105.047 18.384 18.384 0 0 0-.162.071q-.228.1-.375.174l-.293 1.074-1.172.195a108.382 108.382 0 0 0-.497.092q-.614.114-.943.185a11.258 11.258 0 0 0-.073.016q-.44.098-1.026.098l-.976-.098a73.094 73.094 0 0 1-.507-.418q-.547-.456-.932-.799a19.574 19.574 0 0 1-.222-.199 8.576 8.576 0 0 0-.786-.636 10.72 10.72 0 0 0-.581-.389 12.414 12.414 0 0 1-.369-.517q-.533-.793-.607-1.241a38.811 38.811 0 0 0-.098-.562 29.799 29.799 0 0 0-.098-.512q-.128-.385-.193-.685a3.344 3.344 0 0 1-.051-.292 1.472 1.472 0 0 0-.047-.233q-.036-.122-.093-.218a.687.687 0 0 0-.104-.135l-1.269-1.172 1.074-.879.097-1.66q1.954-4.98 4.151-9.57a1161.873 1161.873 0 0 1 4.541-9.375 137.187 137.187 0 0 0 1.514-3.125 137.187 137.187 0 0 1 1.513-3.125q-.091-.275-.097-.635a3.052 3.052 0 0 1 0-.049 1.865 1.865 0 0 1 .037-.36q.034-.175.101-.367a3.541 3.541 0 0 1 .057-.152 47.511 47.511 0 0 0 .751-1.197q.398-.658.725-1.253a25.574 25.574 0 0 0 .282-.528 204.966 204.966 0 0 0 1.367-2.686 74.317 74.317 0 0 1 1.611-3.222 21.05 21.05 0 0 1 1.073-1.789A27.041 27.041 0 0 1 114.115 25l1.562-.684a14.936 14.936 0 0 0 .234-.08l.215-.077a26.877 26.877 0 0 0 .235-.087 2.277 2.277 0 0 1 .526-.126 2.919 2.919 0 0 1 .353-.02l1.465.195a14.618 14.618 0 0 0 4.785-3.564 41.404 41.404 0 0 0 2.009-2.441q.947-1.238 1.913-2.665a67.813 67.813 0 0 0 .277-.412l.977-1.367 1.269.781a3.512 3.512 0 0 0 .382.196q.409.181.985.341a86.792 86.792 0 0 1 .904.257 102.558 102.558 0 0 1 .952.28 42.382 42.382 0 0 1 2.501.634 36.724 36.724 0 0 1 .819.245 7.077 7.077 0 0 1 1.336.565 5.413 5.413 0 0 1 1.203.9q.586 1.563.684 2.344.097.781.293 1.562a117.356 117.356 0 0 1 .537 3.321 32.743 32.743 0 0 1 .207 1.757 44.306 44.306 0 0 1 .135 1.954q.488 1.66.83 3.271.342 1.611.634 3.272a354.264 354.264 0 0 0 .855 3.989 322.688 322.688 0 0 0 .122.552q.488 2.197 1.27 4.15a10.033 10.033 0 0 1 .272.003q.545.015.704.095a5.312 5.312 0 0 1 1.026-.293 27.217 27.217 0 0 1 .535-.092q.322-.052.685-.104l1.074-.097.391.976q.082.412.721.824a4.53 4.53 0 0 0 .256.153 6.598 6.598 0 0 1 .66.082q.774.139 1.195.455.586.439 1.074.928.363.363.727.557a2.231 2.231 0 0 0 .055.029l1.464.586-.781 1.464a11.588 11.588 0 0 1-1.361 1.932 15.419 15.419 0 0 1-1.422 1.438 17.202 17.202 0 0 1-4.053 2.685 15.827 15.827 0 0 1 .117.834 13.684 13.684 0 0 1 .03.289 4.619 4.619 0 0 0 .118.691 5.683 5.683 0 0 0 .126.432q.293 1.66.488 3.418a16.127 16.127 0 0 1 .098 1.782 17.483 17.483 0 0 1-.098 1.831Zm-20.898-30.175-.586.976a40.192 40.192 0 0 0-2.848 3.351 46.485 46.485 0 0 0-.912 1.239q-1.807 2.539-3.076 4.785l-1.172 1.758a25.471 25.471 0 0 0-1.074 1.758 7.167 7.167 0 0 1 .782-.088 6.172 6.172 0 0 1 .341-.01 5.331 5.331 0 0 0 .84-.064 4.788 4.788 0 0 0 .185-.033q2.93-.196 5.322-.44a48.152 48.152 0 0 0 2.522-.329q1.333-.207 2.801-.501a502.546 502.546 0 0 0-1.081-4.532 568.496 568.496 0 0 0-.384-1.572q-.781-3.173-1.66-6.298Zm49.121 19.433-.391 1.172q-.586.586-.683.928a.978.978 0 0 1-.164.319q-.085.113-.206.22a2.006 2.006 0 0 1-.119.096q-.097 1.074-.683 2.148a6.686 6.686 0 0 0-.189.534 5.292 5.292 0 0 0-.104.394 7.634 7.634 0 0 0-.043.204q-.037.191-.049.32a1.2 1.2 0 0 0-.006.111 3.038 3.038 0 0 1-.027.42q-.087.625-.461.849a2.546 2.546 0 0 1 .049.501q0 .232-.04.474a3.215 3.215 0 0 1-.009.05 61.69 61.69 0 0 1-.147.779 53.671 53.671 0 0 1-.049.247q-.292 1.172-.195 1.855a21.046 21.046 0 0 0 .247.323q.115.147.221.277a12.328 12.328 0 0 0 .069.084q.221.265.322.69a2.602 2.602 0 0 1 .02.091q.442.295.717.423a1.56 1.56 0 0 0 .162.065q.353.265 1.024.609a16.346 16.346 0 0 0 .148.075l.879.977a9.056 9.056 0 0 1 .104.812q.091 1.133-.155 2.053a4.252 4.252 0 0 1-.828 1.627q-1.465 1.855-4.981 1.855h-1.171q-.376-.375-.52-.635a.871.871 0 0 1-.066-.146 105.648 105.648 0 0 1-.373-.14q-.531-.202-.897-.348-.427-.171-.78-.641a3.098 3.098 0 0 1-.099-.141q-1.269-.585-2.051-.976l-.879-.488v-1.172a6.234 6.234 0 0 1-1.025-1.953q-.342-1.075-.537-2.149a21.191 21.191 0 0 0-.317-1.251 18.361 18.361 0 0 0-.123-.409 5.87 5.87 0 0 0-.319-.814 4.683 4.683 0 0 0-.315-.553 42.933 42.933 0 0 1-.026-1.479q0-4.706 1.1-8.091a169.818 169.818 0 0 1 2.296-6.612 154.847 154.847 0 0 1 .341-.908q.781-1.953 1.562-3.955a41.296 41.296 0 0 0 1.367-4.15l.879-.977a607.062 607.062 0 0 0 .327-.748q.467-1.071.796-1.84a105.392 105.392 0 0 1 .898-2.032 114.758 114.758 0 0 1 .03-.068 39.087 39.087 0 0 0 .412-.997 34.141 34.141 0 0 0 .125-.321q.244-.635.44-1.123a12.382 12.382 0 0 0-.562.012 9.49 9.49 0 0 0-.513.037 10.103 10.103 0 0 0-.976.146q-.586.098-1.074.147a9.808 9.808 0 0 1-.977.049 7.656 7.656 0 0 1-.317-.006q-.44-.019-.66-.092a5.52 5.52 0 0 1-2.068.482 6.441 6.441 0 0 1-.275.006h-.977a3.061 3.061 0 0 1-.31-.015 2.397 2.397 0 0 1-.227-.034 2.775 2.775 0 0 0-.204-.033q-.106-.013-.201-.015a1.615 1.615 0 0 0-.034 0 5.306 5.306 0 0 0-.612.033q-.299.034-.548.106a2.324 2.324 0 0 0-.403.154h-3.223a2.025 2.025 0 0 0-.153.006q-.073.006-.157.016a4.617 4.617 0 0 0-.178.026q-.197.033-.349.044a1.981 1.981 0 0 1-.139.005 7.27 7.27 0 0 1-.846-.051 9.13 9.13 0 0 1-.619-.095q-.781-.147-1.66-.635-1.146-1.528-1.545-1.655a.289.289 0 0 0-.018-.005l-.879-1.172q-.097-.586-.292-1.123a15.53 15.53 0 0 1-.194-.569q-.096-.298-.191-.63a24.951 24.951 0 0 1-.006-.022q-.391-.976-.733-2.099a7.284 7.284 0 0 1-.233-1.067q-.081-.554-.101-1.185a13.453 13.453 0 0 1-.007-.434q.097-.779.389-1.17a1.244 1.244 0 0 1 .001-.002 20.755 20.755 0 0 0 .206-.279q.1-.138.186-.262a10.446 10.446 0 0 0 .097-.142l.293-1.465 1.269.097h2.734q3.125 0 6.348-.244a670.193 670.193 0 0 0 6.214-.5 731.971 731.971 0 0 0 .427-.037 1645.493 1645.493 0 0 1 3.955-.39 616.467 616.467 0 0 1 3.085-.293 684.186 684.186 0 0 1 1.065-.098 41.999 41.999 0 0 1 .58-1.251 36.309 36.309 0 0 1 .201-.409l.977-.488q1.629-.091 2.377.364a1.563 1.563 0 0 1 .113.075 13.298 13.298 0 0 1 .593.46q.265.218.486.427a7.354 7.354 0 0 1 .142.138 218.446 218.446 0 0 0 4.346-.439 72.951 72.951 0 0 0 4.443-.635 220.592 220.592 0 0 1 6.689-.879 58.18 58.18 0 0 1 4.917-.366 51.5 51.5 0 0 1 1.578-.024 34.917 34.917 0 0 1 2.277.072 31.387 31.387 0 0 1 .359.025q1.27.098 2.344.293l.977.684a3.538 3.538 0 0 0 .591.84 4.224 4.224 0 0 0 .239.234 34.564 34.564 0 0 0 1.123.977 20.2 20.2 0 0 1 1.318 1.332 25.904 25.904 0 0 1 1.026 1.207 3.997 3.997 0 0 1 .713 1.428q.338 1.196.165 2.869-.781 1.171-1.171 1.367l-.879 1.172-.977-.098q-.586 0-1.074.146-.488.147-.977.342a8.132 8.132 0 0 1-.781.342 5.047 5.047 0 0 1-.463.147 6.584 6.584 0 0 1-.416.097 26.193 26.193 0 0 1-.516-.005q-.514-.01-.876-.042a7.454 7.454 0 0 1-.024-.002q-.537-.048-1.123-.048a39.879 39.879 0 0 0-2.87.108 50.358 50.358 0 0 0-2.403.233 257.727 257.727 0 0 0-5.567.733 95.064 95.064 0 0 1-2.847.384 83.831 83.831 0 0 1-.913.104 94.307 94.307 0 0 1-1.721.171 68.529 68.529 0 0 1-1.55.122 59.167 59.167 0 0 1-.641 1.907q-.318.892-.635 1.679a35.553 35.553 0 0 1-.091.223q-.684 1.66-1.465 3.222a43.394 43.394 0 0 0-1.416 3.369 57.199 57.199 0 0 0-.85 2.466 67.596 67.596 0 0 0-.371 1.196 36.361 36.361 0 0 0-.84 1.412q-.38.673-.685 1.293a21.732 21.732 0 0 0-.086.176 13.228 13.228 0 0 0-.668 1.686 16.692 16.692 0 0 0-.357 1.293 11.315 11.315 0 0 0-1.359 2.132 9.994 9.994 0 0 0-.399.944q-.449 1.234-.726 2.21a18.922 18.922 0 0 0-.153.573Z" vector-effect="non-scaling-stroke"/><path d="m224.857 54.199-.391 1.172q-.586.586-.683.928a.978.978 0 0 1-.164.319q-.084.113-.206.22a2.006 2.006 0 0 1-.118.096q-.098 1.074-.684 2.148a6.686 6.686 0 0 0-.189.534 5.292 5.292 0 0 0-.104.394 7.634 7.634 0 0 0-.043.204q-.037.191-.049.32a1.2 1.2 0 0 0-.006.111 3.038 3.038 0 0 1-.027.42q-.087.625-.461.849a2.546 2.546 0 0 1 .049.501q0 .232-.04.474a3.215 3.215 0 0 1-.009.05 61.69 61.69 0 0 1-.146.779 53.671 53.671 0 0 1-.049.247q-.293 1.172-.196 1.855a21.046 21.046 0 0 0 .247.323q.115.147.221.277a12.328 12.328 0 0 0 .069.084q.222.265.322.69a2.602 2.602 0 0 1 .02.091q.442.295.717.423a1.56 1.56 0 0 0 .162.065q.353.265 1.024.609a16.346 16.346 0 0 0 .148.075l.879.977a9.056 9.056 0 0 1 .104.812q.091 1.133-.155 2.053a4.252 4.252 0 0 1-.828 1.627q-1.465 1.855-4.98 1.855h-1.172q-.376-.375-.52-.635a.871.871 0 0 1-.066-.146 105.648 105.648 0 0 1-.373-.14q-.531-.202-.897-.348-.427-.171-.779-.641a3.098 3.098 0 0 1-.1-.141q-1.269-.585-2.05-.976l-.879-.488v-1.172a6.234 6.234 0 0 1-1.026-1.953q-.342-1.075-.537-2.149a21.191 21.191 0 0 0-.317-1.251 18.361 18.361 0 0 0-.122-.409 5.87 5.87 0 0 0-.32-.814 4.683 4.683 0 0 0-.315-.553 42.933 42.933 0 0 1-.026-1.479q0-4.706 1.1-8.091a169.818 169.818 0 0 1 2.297-6.612 154.847 154.847 0 0 1 .34-.908q.781-1.953 1.562-3.955a41.296 41.296 0 0 0 1.368-4.15l.878-.977a607.062 607.062 0 0 0 .327-.748q.467-1.071.797-1.84a105.392 105.392 0 0 1 .897-2.032 114.758 114.758 0 0 1 .03-.068 39.087 39.087 0 0 0 .412-.997 34.141 34.141 0 0 0 .125-.321q.245-.635.44-1.123a12.382 12.382 0 0 0-.562.012 9.49 9.49 0 0 0-.512.037 10.103 10.103 0 0 0-.977.146q-.586.098-1.074.147a9.808 9.808 0 0 1-.977.049 7.656 7.656 0 0 1-.317-.006q-.44-.019-.659-.092a5.52 5.52 0 0 1-2.069.482 6.441 6.441 0 0 1-.275.006h-.977a3.061 3.061 0 0 1-.31-.015 2.397 2.397 0 0 1-.227-.034 2.775 2.775 0 0 0-.204-.033q-.106-.013-.2-.015a1.615 1.615 0 0 0-.035 0 5.306 5.306 0 0 0-.612.033q-.298.034-.548.106a2.324 2.324 0 0 0-.403.154h-3.222a2.025 2.025 0 0 0-.153.006q-.074.006-.158.016a4.617 4.617 0 0 0-.178.026q-.196.033-.349.044a1.981 1.981 0 0 1-.139.005 7.27 7.27 0 0 1-.846-.051 9.13 9.13 0 0 1-.619-.095q-.781-.147-1.66-.635-1.146-1.528-1.545-1.655a.289.289 0 0 0-.017-.005l-.879-1.172q-.098-.586-.293-1.123a15.53 15.53 0 0 1-.194-.569q-.095-.298-.191-.63a24.951 24.951 0 0 1-.006-.022q-.391-.976-.732-2.099a7.284 7.284 0 0 1-.234-1.067q-.081-.554-.101-1.185a13.453 13.453 0 0 1-.007-.434q.097-.779.389-1.17a1.244 1.244 0 0 1 .002-.002 20.755 20.755 0 0 0 .205-.279q.101-.138.186-.262a10.446 10.446 0 0 0 .097-.142l.293-1.465 1.269.097h2.735q3.125 0 6.347-.244a670.193 670.193 0 0 0 6.214-.5 731.971 731.971 0 0 0 .427-.037 1645.493 1645.493 0 0 1 3.955-.39 616.467 616.467 0 0 1 3.085-.293 684.186 684.186 0 0 1 1.065-.098 41.999 41.999 0 0 1 .58-1.251 36.309 36.309 0 0 1 .202-.409l.976-.488q1.629-.091 2.377.364a1.563 1.563 0 0 1 .113.075 13.298 13.298 0 0 1 .593.46q.265.218.486.427a7.354 7.354 0 0 1 .142.138 218.446 218.446 0 0 0 4.346-.439 72.951 72.951 0 0 0 4.443-.635 220.592 220.592 0 0 1 6.69-.879 58.18 58.18 0 0 1 4.916-.366 51.5 51.5 0 0 1 1.578-.024 34.917 34.917 0 0 1 2.278.072 31.387 31.387 0 0 1 .359.025q1.269.098 2.343.293l.977.684a3.538 3.538 0 0 0 .592.84 4.224 4.224 0 0 0 .238.234 34.564 34.564 0 0 0 1.123.977 20.2 20.2 0 0 1 1.318 1.332 25.904 25.904 0 0 1 1.026 1.207 3.997 3.997 0 0 1 .714 1.428q.338 1.196.165 2.869-.782 1.171-1.172 1.367l-.879 1.172-.977-.098q-.586 0-1.074.146-.488.147-.976.342a8.132 8.132 0 0 1-.782.342 5.047 5.047 0 0 1-.463.147 6.584 6.584 0 0 1-.416.097 26.193 26.193 0 0 1-.516-.005q-.513-.01-.876-.042a7.454 7.454 0 0 1-.024-.002q-.537-.048-1.123-.048a39.879 39.879 0 0 0-2.87.108 50.358 50.358 0 0 0-2.403.233 257.727 257.727 0 0 0-5.567.733 95.064 95.064 0 0 1-2.847.384 83.831 83.831 0 0 1-.912.104 94.307 94.307 0 0 1-1.722.171 68.529 68.529 0 0 1-1.55.122 59.167 59.167 0 0 1-.641 1.907q-.317.892-.635 1.679a35.553 35.553 0 0 1-.091.223q-.684 1.66-1.465 3.222a43.394 43.394 0 0 0-1.416 3.369 57.199 57.199 0 0 0-.85 2.466 67.596 67.596 0 0 0-.371 1.196 36.361 36.361 0 0 0-.84 1.412q-.379.673-.685 1.293a21.732 21.732 0 0 0-.086.176 13.228 13.228 0 0 0-.668 1.686 16.692 16.692 0 0 0-.357 1.293 11.315 11.315 0 0 0-1.359 2.132 9.994 9.994 0 0 0-.399.944q-.449 1.234-.726 2.21a18.922 18.922 0 0 0-.153.573Zm58.984 8.594h1.075q-.456-1.432-.456-2.713a6.67 6.67 0 0 1 .114-1.242 39.558 39.558 0 0 1 .83-3.516 50.522 50.522 0 0 0 .697-2.712 45.066 45.066 0 0 0 .133-.608 5.241 5.241 0 0 0 .114-1.091q0-.76-.216-1.552a7.269 7.269 0 0 0-.24-.726.904.904 0 0 0 .114.058q.359.152.569-.206a1.046 1.046 0 0 0 .05-.096 4.103 4.103 0 0 0 .169-.444q.079-.247.144-.536a8.569 8.569 0 0 0 .077-.388 7.373 7.373 0 0 0 .108-1.131q.007-.307-.01-.626a21.287 21.287 0 0 0-.039-.598q-.044-.531-.108-.916a37.78 37.78 0 0 0 2.002-6.25q.733-3.223 1.319-6.396.586-3.174 1.318-6.153a33.716 33.716 0 0 1 1.724-5.201 30.983 30.983 0 0 1 .18-.414 5.223 5.223 0 0 1 .74-.052q.677 0 1.387.169a7.375 7.375 0 0 1 .754.225q1.36.482 1.892 1.162a1.805 1.805 0 0 1 .11.156 26.061 26.061 0 0 0 5.076-5.253 29.186 29.186 0 0 0 .295-.411 256.858 256.858 0 0 1 4.737-6.494 31.665 31.665 0 0 1 5.42-5.615 13.124 13.124 0 0 1 4.854-2.434 17.208 17.208 0 0 1 2.665-.496 138.425 138.425 0 0 0 2.49 1.721 185.654 185.654 0 0 0 2.783 1.843 16.193 16.193 0 0 1 4.786 4.737 24.655 24.655 0 0 1 1.513 1.025 24.655 24.655 0 0 0 1.514 1.026v1.464q1.367 1.27 2.295 2.979.928 1.709 1.66 3.613a134.732 134.732 0 0 1 1.416 3.858 27.336 27.336 0 0 0 1.084 2.656 23.677 23.677 0 0 0 .479.957q-.196.586-.147 1.025.049.44.195.879a6.396 6.396 0 0 1 .15.525 8.184 8.184 0 0 1 .095.452q.097.537.097 1.318-.39 5.176-3.369 8.35a23.184 23.184 0 0 1-6.184 4.657 26.86 26.86 0 0 1-1.043.518q-4.248 2.002-9.033 3.418a90.202 90.202 0 0 0-5.105 1.671 70.707 70.707 0 0 0-3.586 1.406.496.496 0 0 0 .024.161q.079.229.415.229.427 0 .255.553a1.733 1.733 0 0 1-.011.033 214.243 214.243 0 0 1 1.383.836q1.95 1.191 3.158 1.996a37.072 37.072 0 0 0 1.563.989 27.69 27.69 0 0 0 1.465.818 16.037 16.037 0 0 0 2.085.892 18.955 18.955 0 0 0 1.04.329q1.308.373 3.39.862a165.18 165.18 0 0 0 1.346.309 311.988 311.988 0 0 1 1.431.327q1.391.321 2.432.577a87.358 87.358 0 0 1 .873.219 51.235 51.235 0 0 0 1.528.37q.822.184 1.549.314a52.87 52.87 0 0 0 1.785.286 63.761 63.761 0 0 0 1.144.154q1.197.149 3.023.356a563.382 563.382 0 0 0 1.177.132q1.074 1.074 1.757 2.539a13.246 13.246 0 0 1 .83 2.289 11.865 11.865 0 0 1 .147.641 9.959 9.959 0 0 1 .182 1.413q.013.24.013.475a8.101 8.101 0 0 1-.049.895 4.882 4.882 0 0 1-.185.913q-.217.698-.645 1.186a.551.551 0 0 0 .069.166q.137.213.468.176.376-.042.787.024a3.578 3.578 0 0 1 .141.025q-.683.488-1.172 1.172l-.976 1.367a8.257 8.257 0 0 1-1.123 1.27 2.569 2.569 0 0 1-1.187.614 3.366 3.366 0 0 1-.425.069q-3.515 1.367-8.984.098a67.817 67.817 0 0 1-3.714-.984q-4.268-1.251-9.876-3.367a216.676 216.676 0 0 1-.375-.141q-2.821-1.05-4.937-1.968a52.971 52.971 0 0 1-1.899-.864q-2.636-1.27-4.59-2.491-1.953-1.22-3.613-2.636a124.128 124.128 0 0 1-1.314-1.138q-.576-.505-1.199-1.063a216.935 216.935 0 0 1-1.295-1.168.565.565 0 0 0-.171.088q-.139.109-.171.302a.504.504 0 0 1-.075.199q-.07.105-.197.164a.657.657 0 0 1-.07.028q-.488 3.906-1.514 6.347a19.862 19.862 0 0 1-1.399 2.7 26.515 26.515 0 0 1-1.579 2.281 6.508 6.508 0 0 0-.375-.06q-.916-.117-1.414.125a1.021 1.021 0 0 0-.311.228 5.805 5.805 0 0 1-.767.694 7.289 7.289 0 0 1-.551.38 5.123 5.123 0 0 1-.312.053q-.661.09-1.056-.059a1.042 1.042 0 0 1-.097-.043 6.063 6.063 0 0 1-.612-.35 5.136 5.136 0 0 1-.267-.187 9.299 9.299 0 0 0-.47-.329 11.706 11.706 0 0 0-.409-.257 1.308 1.308 0 0 0-.321-.134q-.388-.108-.982-.079a6.21 6.21 0 0 0-.259.018 103.039 103.039 0 0 0-.586-1.709 1.031 1.031 0 0 0-.743-.674q-.31-.087-.737-.064a3.662 3.662 0 0 0-.083.006 4.92 4.92 0 0 0 .14-.504q.118-.537.062-.965a1.979 1.979 0 0 0-.007-.045 6.593 6.593 0 0 0-.16-.755 5.541 5.541 0 0 0-.132-.417 11.285 11.285 0 0 1-.333-1.087 12.309 12.309 0 0 1-.009-.036q-.147-.586.146-1.367-.43.086-.784-.548a2.972 2.972 0 0 1-.095-.185q-.39-.83-.879-1.611Zm34.375-42.285q-1.269 1.855-2.832 3.369a93.078 93.078 0 0 0-3.076 3.125q-1.513 1.611-2.685 3.516a11.737 11.737 0 0 0-1.127 2.446 15.573 15.573 0 0 0-.534 2.095 30.697 30.697 0 0 0 5.009-1.045 39.145 39.145 0 0 0 3.585-1.25 935.238 935.238 0 0 0 4.37-1.77 792.231 792.231 0 0 0 4.126-1.697q-.488-3.613-2.539-5.811-1.879-2.013-3.923-2.838a8.198 8.198 0 0 0-.374-.14Zm49.659 50.781a4.086 4.086 0 0 0 .118-.259q.675-1.624.223-4.331a41.058 41.058 0 0 1-.687-7.43 39.266 39.266 0 0 1 .053-2.042 60.473 60.473 0 0 1 1.22-9.327 86.051 86.051 0 0 1 2.491-9.228q1.513-4.59 3.271-9.277a1.745 1.745 0 0 1-.828-.647 2.48 2.48 0 0 1-.295-.574 7.044 7.044 0 0 1-.237-.786 8.565 8.565 0 0 1-.202-1.265 26.485 26.485 0 0 1-.098-2.295v-1.953a4.374 4.374 0 0 1-.559-.331 3.27 3.27 0 0 1-1.101-1.28 9.684 9.684 0 0 1-.733-2.198l-.488-2.343a5.052 5.052 0 0 0-1.025-2.149 8.427 8.427 0 0 0-.271.005q-.579.018-1.084.117a4.761 4.761 0 0 0-1.136.367 11.605 11.605 0 0 0-.377.188 10.165 10.165 0 0 0-1.478.935 14.983 14.983 0 0 0-.052.039 16.228 16.228 0 0 0-1.559 1.377 10.891 10.891 0 0 1-1.661 1.367q.196 1.66-.537 3.174a48.305 48.305 0 0 1-.33.669q-.517 1.027-.89 1.626-.383.765-.376 1.35a1.566 1.566 0 0 0 .034.31 2.07 2.07 0 0 1 .03.177q.08.641-.177 1.58-.097.489-.586.635a1.486 1.486 0 0 0-.009.003q-.139.043-.246.106a.674.674 0 0 0-.331.428 1.848 1.848 0 0 0-.071.51q0 .236.058.483a2.744 2.744 0 0 0 .16.472 2.553 2.553 0 0 1 .217 1.034q0 .307-.071.626a53.773 53.773 0 0 1-2.099 7.715q-1.319 3.711-2.002 7.813a27.407 27.407 0 0 0-.089.741 31.216 31.216 0 0 0-.155 2.335 3356.923 3356.923 0 0 1-.098 3.174 47.253 47.253 0 0 1-.195 3.076 10.879 10.879 0 0 1-.194 1.259 8.253 8.253 0 0 1-.441 1.426 201.289 201.289 0 0 0 .113.477q.173.729.373 1.546a354.476 354.476 0 0 0 .442 1.786 79.711 79.711 0 0 0 1.22 4.346q.684 2.197 1.465 4.248a21.408 21.408 0 0 0 .224.563q.341.825.717 1.528a12.094 12.094 0 0 0 .817 1.327q1.318.219 2.747.219a19.311 19.311 0 0 0 .964-.024 9.345 9.345 0 0 0 1.064-.113 7.516 7.516 0 0 0 2.403-.815 5.401 5.401 0 0 0 1.136-.829 5.938 5.938 0 0 0 1.208-1.661Zm52.197-29.297 6.738-4.492q.823.598 1.931 1.282a48.577 48.577 0 0 0 .706.427q1.562.928 3.271 1.855a173.326 173.326 0 0 0 3.516 1.856 108.232 108.232 0 0 1 2.163 1.141 89.671 89.671 0 0 1 1.206.666 8.688 8.688 0 0 1 2.442 1.562q1.074.977 2.05 2.002.977 1.025 2.002 2.002a9.62 9.62 0 0 0 2.015 1.462 11.001 11.001 0 0 0 .378.198 7.085 7.085 0 0 0-.059.488q-.078.938.156 1.563a3.279 3.279 0 0 1 .165.641q.082.514.043 1.149a7.462 7.462 0 0 1-.012.163 18.03 18.03 0 0 1-3.502 4.505 16.294 16.294 0 0 1-2.651 1.989q-3.808 2.295-8.398 3.809a110.116 110.116 0 0 1-8.369 2.387 121.733 121.733 0 0 1-1.25.298 68.75 68.75 0 0 0-9.717 3.028 33.138 33.138 0 0 0-.977.013q-.533.016-1.002.05a17.961 17.961 0 0 0-.414.034q-1.025.098-1.953.244-.927.147-1.806.293a23.021 23.021 0 0 1-.928.135 30.653 30.653 0 0 1-1.025.11 1.073 1.073 0 0 0-.081-.017q-.138-.024-.233.003a.256.256 0 0 0-.175.16 1.301 1.301 0 0 1-.293.44q-1.485.262-2.696.289a12.361 12.361 0 0 1-.282.003h-2.197a8.681 8.681 0 0 0-2.013.244 9.918 9.918 0 0 0-.38.098q-1.221.342-2.197.244a18.901 18.901 0 0 1-5.19-.966 14.29 14.29 0 0 1-6.285-4.258 17.551 17.551 0 0 1-3.235-5.774q-.833-2.413-1.194-5.311a35.121 35.121 0 0 1-.21-2.343 1.657 1.657 0 0 0 .017-.099q.037-.267-.048-.394a.243.243 0 0 0-.115-.093 1.301 1.301 0 0 1-.439-.293 6.52 6.52 0 0 1 .038-.732q.059-.517.206-.928.242-.679.051-1.743a6.543 6.543 0 0 0-.003-.015q2.54-5.371 5.762-10.01a37.404 37.404 0 0 1 7.715-8.154 11.113 11.113 0 0 0 .698-.65 8.659 8.659 0 0 0 .474-.522q.488-.586.928-1.172.439-.586 1.025-1.025a3.294 3.294 0 0 1 .746-.415 4.548 4.548 0 0 1 .719-.22 25.245 25.245 0 0 1 3.516-3.296 29.578 29.578 0 0 1 1.367-1.001 88.557 88.557 0 0 1 5.957-3.759 1047.703 1047.703 0 0 0 6.201-3.614q3.076-1.806 5.615-4.052a5.948 5.948 0 0 0 .397.164q.644.238 1.024.169a.737.737 0 0 0 .142-.04q.4-.161.866-.058a2.05 2.05 0 0 1 .208.058 4.995 4.995 0 0 0 .637 1.036 3.654 3.654 0 0 0 1.267 1.014q1.221.586 2.442 1.221 1.22.635 2.294 1.514a5.369 5.369 0 0 1 1.292 1.566 6.767 6.767 0 0 1 .369.777 1.157 1.157 0 0 0-.191.015q-.377.063-.348.408a.649.649 0 0 0 .002.017 2.897 2.897 0 0 0 .181.728 3.349 3.349 0 0 0 .063.151 1.806 1.806 0 0 1 .137.461q.019.121.019.242a1.591 1.591 0 0 1-.01.176q-.039.354-.491.423a1.612 1.612 0 0 1-.241.016.72.72 0 0 0 .104.262q.113.17.33.237a.979.979 0 0 0 .2.038q.538.049.538.537a1.586 1.586 0 0 1-.032.326q-.056.268-.213.456-.214.257-.089.816a2.818 2.818 0 0 0 .041.16q-1.953 1.27-4.346 2.442a343.531 343.531 0 0 0-3.699 1.84 390.565 390.565 0 0 0-1.282.65 218.388 218.388 0 0 0-3.991 2.087 248.527 248.527 0 0 0-1.38.745 46.135 46.135 0 0 0-5.42 3.467 81.57 81.57 0 0 0-3.84 3.034 95 95 0 0 0-1.531 1.311q-2.734 2.393-5.273 5.03a82.598 82.598 0 0 0-4.785 5.42 45.18 45.18 0 0 0-2.541 3.46 37.339 37.339 0 0 0-1.268 2.057 3.316 3.316 0 0 0 .137.301q.075.143.155.256a1.396 1.396 0 0 0 .148.176 1.454 1.454 0 0 1 .176.217q.079.117.152.264a3.441 3.441 0 0 1 .111.251q2.691.168 5.056.011a31.415 31.415 0 0 0 .755-.06 17.486 17.486 0 0 1 1.584-.072 18.265 18.265 0 0 1 3.836.414.9.9 0 0 0 .338-.424 1.226 1.226 0 0 0 .052-.162.859.859 0 0 1 .423-.551 1.186 1.186 0 0 1 .065-.035q5.567-.586 10.352-1.807a557.269 557.269 0 0 0 9.766-2.587 211.225 211.225 0 0 1-.745-.281 155.579 155.579 0 0 1-.671-.257 29.697 29.697 0 0 0-.916-.335 25.673 25.673 0 0 0-.305-.104q-.438-.438-.052-.757a.991.991 0 0 1 .101-.073 5.958 5.958 0 0 0 .558-.4 4.815 4.815 0 0 0 .369-.332 7.107 7.107 0 0 1-1.531-1.162 6.267 6.267 0 0 1-.666-.792q-.69-.974-.941-2.489a9.909 9.909 0 0 1-.084-.636 1.785 1.785 0 0 0 .357-.393 1.395 1.395 0 0 0 .229-.778 1.272 1.272 0 0 0-.121-.56q-.145-.301-.465-.515a2.289 2.289 0 0 0-.104-.023q-.301-.061-.384.023a.446.446 0 0 0-.074.1q-.027.049-.048.11a.991.991 0 0 0-.025.083 1.19 1.19 0 0 1-.07.205.974.974 0 0 1-.076.137.137.137 0 0 1-.091.058q-.104.022-.297-.06a1.787 1.787 0 0 1-.101-.047q.098-.879.44-1.465a4.655 4.655 0 0 0 .338-.721 6.05 6.05 0 0 0 .199-.646Z" vector-effect="non-scaling-stroke"/><path d="m485.306 41.992 6.739-4.492q.822.598 1.931 1.282a48.577 48.577 0 0 0 .705.427q1.563.928 3.272 1.855a173.326 173.326 0 0 0 3.515 1.856 108.232 108.232 0 0 1 2.163 1.141 89.671 89.671 0 0 1 1.206.666 8.688 8.688 0 0 1 2.442 1.562q1.074.977 2.051 2.002.976 1.025 2.002 2.002a9.62 9.62 0 0 0 2.014 1.462 11.001 11.001 0 0 0 .378.198 7.085 7.085 0 0 0-.058.488q-.079.938.156 1.563a3.279 3.279 0 0 1 .165.641q.081.514.042 1.149a7.462 7.462 0 0 1-.012.163 18.03 18.03 0 0 1-3.502 4.505 16.294 16.294 0 0 1-2.65 1.989q-3.809 2.295-8.399 3.809a110.116 110.116 0 0 1-8.368 2.387 121.733 121.733 0 0 1-1.251.298 68.75 68.75 0 0 0-9.717 3.028 33.138 33.138 0 0 0-.977.013q-.532.016-1.002.05a17.961 17.961 0 0 0-.413.034q-1.026.098-1.953.244-.928.147-1.807.293a23.021 23.021 0 0 1-.928.135 30.653 30.653 0 0 1-1.025.11 1.073 1.073 0 0 0-.08-.017q-.139-.024-.234.003a.256.256 0 0 0-.174.16 1.301 1.301 0 0 1-.293.44q-1.485.262-2.697.289a12.361 12.361 0 0 1-.282.003h-2.197a8.681 8.681 0 0 0-2.012.244 9.918 9.918 0 0 0-.381.098q-1.22.342-2.197.244a18.901 18.901 0 0 1-5.19-.966 14.29 14.29 0 0 1-6.285-4.258 17.551 17.551 0 0 1-3.234-5.774q-.834-2.413-1.194-5.311a35.121 35.121 0 0 1-.21-2.343 1.657 1.657 0 0 0 .017-.099q.036-.267-.049-.394a.243.243 0 0 0-.115-.093 1.301 1.301 0 0 1-.439-.293 6.52 6.52 0 0 1 .039-.732q.058-.517.205-.928.242-.679.052-1.743a6.543 6.543 0 0 0-.003-.015q2.539-5.371 5.762-10.01a37.404 37.404 0 0 1 7.714-8.154 11.113 11.113 0 0 0 .699-.65 8.659 8.659 0 0 0 .473-.522q.489-.586.928-1.172.439-.586 1.025-1.025a3.294 3.294 0 0 1 .746-.415 4.548 4.548 0 0 1 .719-.22 25.245 25.245 0 0 1 3.516-3.296 29.578 29.578 0 0 1 1.367-1.001 88.557 88.557 0 0 1 5.957-3.759 1047.703 1047.703 0 0 0 6.201-3.614q3.076-1.806 5.616-4.052a5.948 5.948 0 0 0 .397.164q.644.238 1.024.169a.737.737 0 0 0 .141-.04q.401-.161.867-.058a2.05 2.05 0 0 1 .207.058 4.995 4.995 0 0 0 .637 1.036 3.654 3.654 0 0 0 1.268 1.014q1.22.586 2.441 1.221 1.221.635 2.295 1.514a5.369 5.369 0 0 1 1.292 1.566 6.767 6.767 0 0 1 .368.777 1.157 1.157 0 0 0-.191.015q-.377.063-.348.408a.649.649 0 0 0 .002.017 2.897 2.897 0 0 0 .181.728 3.349 3.349 0 0 0 .063.151 1.806 1.806 0 0 1 .138.461q.018.121.018.242a1.591 1.591 0 0 1-.009.176q-.04.354-.491.423a1.612 1.612 0 0 1-.242.016.72.72 0 0 0 .104.262q.114.17.33.237a.979.979 0 0 0 .201.038q.537.049.537.537a1.586 1.586 0 0 1-.032.326q-.056.268-.212.456-.215.257-.09.816a2.818 2.818 0 0 0 .041.16q-1.953 1.27-4.346 2.442a343.531 343.531 0 0 0-3.698 1.84 390.565 390.565 0 0 0-1.282.65 218.388 218.388 0 0 0-3.992 2.087 248.527 248.527 0 0 0-1.379.745 46.135 46.135 0 0 0-5.42 3.467 81.57 81.57 0 0 0-3.841 3.034 95 95 0 0 0-1.53 1.311q-2.735 2.393-5.274 5.03a82.598 82.598 0 0 0-4.785 5.42 45.18 45.18 0 0 0-2.54 3.46 37.339 37.339 0 0 0-1.268 2.057 3.316 3.316 0 0 0 .136.301q.075.143.156.256a1.396 1.396 0 0 0 .147.176 1.454 1.454 0 0 1 .176.217q.079.117.152.264a3.441 3.441 0 0 1 .111.251q2.691.168 5.057.011a31.415 31.415 0 0 0 .754-.06 17.486 17.486 0 0 1 1.584-.072 18.265 18.265 0 0 1 3.836.414.9.9 0 0 0 .338-.424 1.226 1.226 0 0 0 .053-.162.859.859 0 0 1 .423-.551 1.186 1.186 0 0 1 .065-.035q5.566-.586 10.351-1.807a557.269 557.269 0 0 0 9.766-2.587 211.225 211.225 0 0 1-.745-.281 155.579 155.579 0 0 1-.671-.257 29.697 29.697 0 0 0-.915-.335 25.673 25.673 0 0 0-.306-.104q-.437-.438-.051-.757a.991.991 0 0 1 .1-.073 5.958 5.958 0 0 0 .558-.4 4.815 4.815 0 0 0 .37-.332 7.107 7.107 0 0 1-1.531-1.162 6.267 6.267 0 0 1-.666-.792q-.691-.974-.942-2.489a9.909 9.909 0 0 1-.084-.636 1.785 1.785 0 0 0 .357-.393 1.395 1.395 0 0 0 .229-.778 1.272 1.272 0 0 0-.12-.56q-.145-.301-.466-.515a2.289 2.289 0 0 0-.104-.023q-.3-.061-.384.023a.446.446 0 0 0-.074.1q-.027.049-.048.11a.991.991 0 0 0-.025.083 1.19 1.19 0 0 1-.07.205.974.974 0 0 1-.076.137.137.137 0 0 1-.091.058q-.104.022-.296-.06a1.787 1.787 0 0 1-.101-.047q.097-.879.439-1.465a4.655 4.655 0 0 0 .338-.721 6.05 6.05 0 0 0 .199-.646Z" vector-effect="non-scaling-stroke"/></g></svg>